# xmcd
#
# Track frame offsets: 
#        150
#        11125
#        27262
#        39112
#        53048
#        64531
#        77672
#        93002
#        106666
#        121976
#
# Disc length: 1865 seconds
#
# Revision: 0
# Processed by: cddbd v1.5.2PL0 Copyright (c) Steve Scherf et al.
# Submitted via: ExactAudioCopyFreeDBPlugin 1.0
#
DISCID=6707470a
DTITLE=North Point Kids - Shine! (2013)
DYEAR=2013
DGENRE=Children
TTITLE0=Your Love For Me
TTITLE1=Tell The World
TTITLE2=Look At Our God
TTITLE3=Shine!
TTITLE4=Trust In You
TTITLE5=My Help Comes From You
TTITLE6=Thank You
TTITLE7=I Believe It
TTITLE8=Unlock The Power
TTITLE9=Books Of The Bible
EXTD=
EXTT0=
EXTT1=
EXTT2=
EXTT3=
EXTT4=
EXTT5=
EXTT6=
EXTT7=
EXTT8=
EXTT9=
PLAYORDER=
